<svg width="128" height="128" xmlns="http://www.w3.org/2000/svg" version="1.1">
 <!-- String -->
 <!-- Knot -->
 <!-- Balloon -->
 <defs>
  <!-- Metallic Gradient -->
  <!-- Highlight for shine -->
  <linearGradient y2="100%" x2="100%" y1="0%" x1="0%" id="balloonGradient">
   <stop stop-color="#eee" offset="0%"/>
   <stop stop-color="#999" offset="20%"/>
   <stop stop-color="#ccc" offset="40%"/>
   <stop stop-color="#999" offset="60%"/>
   <stop stop-color="#eee" offset="80%"/>
   <stop stop-color="#aaa" offset="100%"/>
  </linearGradient>
 </defs>
 <g>
  <title>Layer 1</title>
  <path id="svg_1" stroke-linecap="round" stroke-linejoin="round" stroke-width="4px" fill="none" stroke="rgb(58, 58, 58)" d="m64,88.5m1,0q-2,1.5 -1,5q3,7.5 1,15q-3,5 -1,12"/>
  <path id="svg_2" stroke-linejoin="round" stroke-width="4px" stroke="rgb(58, 58, 58)" fill="rgb(102, 102, 102)" d="m64,77l-8,8q8,6 16,0l-8,-8z"/>
  <ellipse id="svg_3" stroke-linecap="round" stroke-dashoffset="0" stroke-dasharray="4 10 4 12 200" stroke-width="4px" stroke="rgb(58, 58, 58)" fill="url(#balloonGradient)" ry="35" rx="30" cy="42" cx="64"/>
  <path stroke="rgb(58, 58, 58)" id="svg_4" fill="none" stroke-width="NaN" d="m67.93184,7.28034a25.96337,34.7229 0 0 0 0,69.4458"/>
  <path transform="rotate(-180 72.5718 41.7758)" id="svg_5" fill="none" stroke-width="NaN" stroke="rgb(58, 58, 58)" d="m84.51197,6.73448aNaN,NaN  0 0 4.12698,70"/>
  <path transform="rotate(-90 63.9666 20.5096)" stroke="rgb(58, 58, 58)" id="svg_6" fill="none" stroke-width="NaN" d="m68.46417,0.42265a8.99506,20.08699 0 0 0 0,40.17397"/>
  <path transform="rotate(-180 73.2146 42.0033)" stroke="rgb(58, 58, 58)" id="svg_14" fill="none" stroke-width="NaN" d="m86.1963,7.28034a25.96337,34.7229 0 0 0 0,69.4458"/>
  <path transform="rotate(90 63.2952 64.7859)" stroke="rgb(58, 58, 58)" id="svg_15" fill="none" stroke-width="NaN" d="m68.80227,45.45645a11.01944,19.32947 0 0 0 0,38.65893"/>
  <path stroke="rgb(58, 58, 58)" id="svg_35" d="m49.89703,20.28265l0,0c0,-0.41145 0.33355,-0.745 0.745,-0.745l0,0c0.19759,0 0.38708,0.07849 0.52679,0.21821c0.13971,0.13971 0.21821,0.32921 0.21821,0.52679l0,0c0,0.41145 -0.33355,0.745 -0.745,0.745l0,0c-0.41145,0 -0.745,-0.33355 -0.745,-0.745zm0.745,-0.745l0,1.49m-0.745,-0.745l1.49,0" stroke-width="NaN" fill="none"/>
  <path stroke="rgb(58, 58, 58)" id="svg_37" d="m76.21282,20.28265l0,0c0,-0.41145 0.33355,-0.745 0.745,-0.745l0,0c0.19758,0 0.38708,0.07849 0.52679,0.21821c0.13972,0.13971 0.21821,0.3292 0.21821,0.52679l0,0c0,0.41145 -0.33355,0.745 -0.745,0.745l0,0c-0.41145,0 -0.745,-0.33355 -0.745,-0.745zm0.745,-0.745l0,1.49m-0.745,-0.745l1.49,0" stroke-width="NaN" fill="none"/>
  <path stroke="rgb(58, 58, 58)" id="svg_38" d="m47.66418,24.74836l0,0c0,-0.41145 0.33355,-0.745 0.745,-0.745l0,0c0.19758,0 0.38708,0.07849 0.52679,0.21821c0.13972,0.13971 0.21821,0.3292 0.21821,0.52679l0,0c0,0.41145 -0.33355,0.745 -0.745,0.745l0,0c-0.41145,0 -0.745,-0.33355 -0.745,-0.745zm0.745,-0.745l0,1.49m-0.745,-0.745l1.49,0" stroke-width="NaN" fill="none"/>
  <path stroke="rgb(58, 58, 58)" id="svg_39" d="m78.92414,25.06734l0,0c0,-0.41145 0.33355,-0.745 0.745,-0.745l0,0c0.19758,0 0.38708,0.07849 0.52679,0.21821c0.13972,0.13971 0.21821,0.3292 0.21821,0.52679l0,0c0,0.41145 -0.33355,0.745 -0.745,0.745l0,0c-0.41145,0 -0.745,-0.33355 -0.745,-0.745zm0.745,-0.745l0,1.49m-0.745,-0.745l1.49,0" stroke-width="NaN" fill="none"/>
  <path stroke="rgb(58, 58, 58)" id="svg_40" d="m48.14264,60.15506l0,0c0,-0.41145 0.33355,-0.745 0.745,-0.745l0,0c0.19758,0 0.38708,0.07849 0.52679,0.21821c0.13972,0.13971 0.21821,0.3292 0.21821,0.52679l0,0c0,0.41145 -0.33355,0.745 -0.745,0.745l0,0c-0.41145,0 -0.745,-0.33355 -0.745,-0.745zm0.745,-0.745l0,1.49m-0.745,-0.745l1.49,0" stroke-width="NaN" fill="none"/>
  <path stroke="rgb(58, 58, 58)" id="svg_41" d="m78.12669,60.31455l0,0c0,-0.41145 0.33355,-0.745 0.745,-0.745l0,0c0.19758,0 0.38708,0.07849 0.52679,0.21821c0.13972,0.13971 0.21821,0.3292 0.21821,0.52679l0,0c0,0.41145 -0.33355,0.745 -0.745,0.745l0,0c-0.41145,0 -0.745,-0.33355 -0.745,-0.745zm0.745,-0.745l0,1.49m-0.745,-0.745l1.49,0" stroke-width="NaN" fill="none"/>
  <path stroke="rgb(58, 58, 58)" id="svg_42" d="m50.3755,64.46128l0,0c0,-0.41145 0.33355,-0.745 0.745,-0.745l0,0c0.19758,0 0.38708,0.07849 0.52679,0.21821c0.13972,0.13971 0.21821,0.3292 0.21821,0.52679l0,0c0,0.41145 -0.33355,0.745 -0.745,0.745l0,0c-0.41145,0 -0.745,-0.33355 -0.745,-0.745zm0.745,-0.745l0,1.49m-0.745,-0.745l1.49,0" stroke-width="NaN" fill="none"/>
  <path stroke="rgb(58, 58, 58)" id="svg_43" d="m75.09639,65.25873l0,0c0,-0.41145 0.33355,-0.745 0.745,-0.745l0,0c0.19758,0 0.38708,0.07849 0.52679,0.21821c0.13972,0.13971 0.21821,0.3292 0.21821,0.52679l0,0c0,0.41145 -0.33355,0.745 -0.745,0.745l0,0c-0.41145,0 -0.745,-0.33355 -0.745,-0.745zm0.745,-0.745l0,1.49m-0.745,-0.745l1.49,0" stroke-width="NaN" fill="none"/>
 </g>
</svg>